<svg width="34" height="34" viewBox="0 0 34 34" fill="none" xmlns="http://www.w3.org/2000/svg">
<rect opacity="0.2" x="11" y="5" width="12" height="24" rx="2.2" fill="#22A45D"/>
<path fill-rule="evenodd" clip-rule="evenodd" d="M10 8.8C10 7.11984 10 6.27976 10.327 5.63803C10.6146 5.07354 11.0735 4.6146 11.638 4.32698C12.2798 4 13.1198 4 14.8 4H19.2C20.8802 4 21.7202 4 22.362 4.32698C22.9265 4.6146 23.3854 5.07354 23.673 5.63803C24 6.27976 24 7.11984 24 8.8V25.2C24 26.8802 24 27.7202 23.673 28.362C23.3854 28.9265 22.9265 29.3854 22.362 29.673C21.7202 30 20.8802 30 19.2 30H14.8C13.1198 30 12.2798 30 11.638 29.673C11.0735 29.3854 10.6146 28.9265 10.327 28.362C10 27.7202 10 26.8802 10 25.2V8.8ZM11 8.52C11 7.28788 11 6.67183 11.2398 6.20122C11.4507 5.78726 11.7873 5.45071 12.2012 5.23979C12.6718 5 13.2879 5 14.52 5H15V5.2C15 5.64183 15.3582 6 15.8 6H18.2C18.6418 6 19 5.64183 19 5.2V5H19.48C20.7121 5 21.3282 5 21.7988 5.23979C22.2127 5.45071 22.5493 5.78726 22.7602 6.20122C23 6.67183 23 7.28788 23 8.52V25.48C23 26.7121 23 27.3282 22.7602 27.7988C22.5493 28.2127 22.2127 28.5493 21.7988 28.7602C21.3282 29 20.7121 29 19.48 29H14.52C13.2879 29 12.6718 29 12.2012 28.7602C11.7873 28.5493 11.4507 28.2127 11.2398 27.7988C11 27.3282 11 26.7121 11 25.48V8.52Z" fill="#22A45D"/>
</svg>
